# xmcd
#
# Track frame offsets:
#	150
#	14671
#	29474
#	45144
#	60169
#	76041
#	92135
#	107069
#	121939
#	136370
#	150937
#	165480
#	180834
#	195385
#	210104
#	225701
#	240991
#	256576
#	271562
#	286261
#
# Disc length: 4013 seconds
#
# Revision: 0
# Processed by: cddbd v1.5.2PL0 Copyright (c) Steve Scherf et al.
# Submitted via: EasyCDDAExtractor 16.0.6.1
#
DISCID=db0fab14
DTITLE=Συλλογικός δίσκος - Τα ρεμπέτικα Γ 1937-1960 18 Α
DYEAR=2010
DGENRE=Ρεμπέτικη
TTITLE0=Χατζηχρήστος Απόστολος κ Ευάγγ.-Βαμβακάρης Μ. - Ο καϊξής [ανατολ., Α. 
TTITLE0=Χατζηχρήστος-Γ. Φωτίδας, Αθ 1948]
TTITLE1=Μπέλλου Σωτηρία-Τσιτσάνης Βασίλης - Σ' έχω κάνει πέρα [χασ., Β. Τσιτσά
TTITLE1=νης, Αθήνα 1948]
TTITLE2=Μπέλλου Σωτηρία-Χιώτης Μανώλης - Δεν υποφέρεσαι [χασ., Τ. Χάρμας (Χαρμ
TTITLE2=αντάς), Αθ 1948]
TTITLE3=Μοσχονάς Οδυσσέας-Περπινιάδης Στελλάκης - Ανοιχτά παίζ' η σαρδέλλα [κα
TTITLE3=λαμ., Γ. Παπαϊωάννου, Αθ 1.1948]
TTITLE4=Παγιουμτζής Στράτος-Βαμβακάρης Μ.-Σταμούλης Ι. - Απόψε θά 'ρθω να στα 
TTITLE4=ψάλλω[χ.Σ.Περιστέρης-Ιακ/ίδης-Μ.Μάτσας,Α1948]
TTITLE5=Μπέλλου Σωτηρία - Περιπλανώμενη ζωή [ζεϊμπ., Β. Τσιτσάνης-Κ. Βίρβος, Α
TTITLE5=θ 7.1954]
TTITLE6=Τσαουσάκης Πρόδρομος-Γεωργακοπούλου Ιωάννα - Ας με κρίνει η κοινωνία [
TTITLE6=ζεϊμπ., Απ. Καλδάρας, Αθ 10.1949]
TTITLE7=Μπέλλου Σωτηρία-Περπινιάδης Στελλάκης - Ο ναύτης [ζεϊμπ., Γ. Μητσάκης,
TTITLE7=Αθήνα 7.1948]
TTITLE8=Στάμου Ρένα - Σεμιχά [τσιφτ., Γ. Μητσάκης, Αθήνα 11.11.1949]
TTITLE9=Μπέλλου Σωτηρία-Περπινιάδης Στελλάκης - Η Πειραιώτισσα [ζεϊμπ., Γ. Παπ
TTITLE9=αϊωάννου-Κ. Μάνεσης, Αθ 10.1948]
TTITLE10=Κρεούζης Ορφέας-Γεωργακοπούλου Ι.-Λαύκας Γιώργος - Ηλιοβασίλεμα σωστό
TTITLE10=[ζεϊμπ., Γ. Λαύκας, Αθήνα 1.1950]
TTITLE11=Μπέλλου Σωτηρία-Τσιτσάνης Βασίλης - Πέφτεις σε λάθη [χασ., Β. Τσιτσάν
TTITLE11=ης, Αθήνα 1949]
TTITLE12=Μπέλλου Σωτηρία-Περπινιάδης Στελλάκης - Σκοτείνιασε [χασ., Γ. Μητσάκη
TTITLE12=ς, Αθήνα 1948]
TTITLE13=Μπέλλου Σωτηρία-Περπινιάδης Στελλάκης - Σβύσε το φως να κοιμηθούμε [χ
TTITLE13=ασ., Γ. Παπαϊωάννου, Αθ 1948]
TTITLE14=Χασκίλ Στέλλα-Περπινιάδης Στελλάκης-Τσιτσάνης Β. - Το γράμμα [ζεϊμπ.,
TTITLE14=Β. Τσιτσάνης, Αθήνα 1948 ή 49]
TTITLE15=Μπέλλου Σωτηρία-Περπινιάδης Στελλάκης - Πληροφορίες [ζεϊμπ., Τ. Χάρμα
TTITLE15=ς (Χαρμαντάς), Αθ 1948]
TTITLE16=Μπέλλου Σωτηρία-Μητσάκης Γιώργος - Το σβυστό φανάρι [ζεϊμπ., Γ. Μητσά
TTITLE16=κης, Αθ 20.10.1949]
TTITLE17=Νίνου Μαρίκα-Κηρομύτης Στέλιος-Τσιτσάνης Β. - Απόψε μέσ' στο καπηλειό
TTITLE17=[ζεϊμπ., Β. Τσιτσάνης, Αθ 1949]
TTITLE18=Μπέλλου Σωτηρία-Περπινιάδης Στελλάκης - Κάνε κουράγιο καρδιά μου [χασ
TTITLE18=, Γ. Παπαϊωάννου, Αθ 1948]
TTITLE19=Μπέλλου Σωτηρία-Τσιτσάνης Βασίλης - Κάνε υπομονή [ζεϊμπ., Β. Τσιτσάνη
TTITLE19=ς, Αθήνα 1949]
EXTD=
EXTT0=
EXTT1=
EXTT2=
EXTT3=
EXTT4=
EXTT5=
EXTT6=
EXTT7=
EXTT8=
EXTT9=
EXTT10=
EXTT11=
EXTT12=
EXTT13=
EXTT14=
EXTT15=
EXTT16=
EXTT17=
EXTT18=
EXTT19=
PLAYORDER=
